# WaveFront *.obj file (generated by Autodesk ATF)

mtllib CMM.mtl

g Sólido1

v -640.000000 0.000000 0.000000
v -640.000000 0.000000 1009.000015
v -640.000000 1146.999969 0.000000
v -640.000000 1146.999969 434.500008
v -640.000000 1146.999969 504.500008
v -640.000000 1146.999969 1009.000015
v -640.000000 1780.000000 434.500008
v -640.000000 1780.000000 504.500008
v -480.000000 1146.999969 134.499998
v -480.000000 1146.999969 434.500008
v -480.000000 1200.000000 134.499998
v -480.000000 1200.000000 434.500008
v -395.000000 1200.000000 279.500008
v -395.000000 1200.000000 339.500008
v -395.000000 1235.000000 279.500008
v -395.000000 1235.000000 339.500008
v -375.000000 1255.000000 279.500008
v -375.000000 1255.000000 339.500008
v -352.000008 1220.000000 279.500008
v -352.000008 1220.000000 339.500008
v -352.000008 1255.000000 279.500008
v -352.000008 1255.000000 339.500008
v -287.999992 1220.000000 279.500008
v -287.999992 1220.000000 339.500008
v -287.999992 1255.000000 279.500008
v -287.999992 1255.000000 339.500008
v -245.000000 1200.000000 279.500008
v -245.000000 1200.000000 339.500008
v -245.000000 1255.000000 279.500008
v -245.000000 1255.000000 339.500008
v -160.000000 1146.999969 134.499998
v -160.000000 1146.999969 434.500008
v -160.000000 1200.000000 134.499998
v -160.000000 1200.000000 434.500008
v 0.000000 0.000000 0.000000
v 0.000000 0.000000 405.000000
v 0.000000 1133.000031 405.000000
v 0.000000 1133.000031 1009.000015
v 0.000000 1146.999969 0.000000
v 0.000000 1146.999969 434.500008
v 0.000000 1146.999969 504.500008
v 0.000000 1146.999969 1009.000015
v 0.000000 1780.000000 434.500008
v 0.000000 1780.000000 504.500008
v 300.000000 0.000000 405.000000
v 300.000000 0.000000 1009.000015
v 300.000000 1133.000031 405.000000
v 300.000000 1133.000031 1009.000015
vt 0.000000 0.000000 0.000000
vt 64.000000 0.000000 0.000000
vt 64.000000 63.299999 0.000000
vt 0.000000 63.299999 0.000000
vt 0.000000 0.000000 0.000000
vt 30.000000 0.000000 0.000000
vt 30.000000 5.300000 0.000000
vt 0.000000 5.300000 0.000000
vt 0.000000 0.000000 0.000000
vt 6.000000 0.000000 0.000000
vt 6.000000 3.500000 0.000000
vt 0.000000 3.500000 0.000000
vt 2.000000 5.500000 0.000000
vt 0.000000 3.500000 0.000000
vt 0.000000 0.000000 0.000000
vt 15.000000 0.000000 0.000000
vt 15.000000 5.500000 0.000000
vt 10.700000 5.500000 0.000000
vt 10.700000 2.000000 0.000000
vt 4.300000 2.000000 0.000000
vt 4.300000 5.500000 0.000000
vt 6.000000 3.500000 0.000000
vt 0.000000 3.500000 0.000000
vt 0.000000 0.000000 0.000000
vt 6.000000 0.000000 0.000000
vt 4.500000 -1.414214 0.000000
vt 4.500000 1.414214 0.000000
vt -1.500000 1.414214 0.000000
vt -1.500000 -1.414214 0.000000
vt 0.000000 0.000000 0.000000
vt 6.000000 0.000000 0.000000
vt 6.000000 3.500000 0.000000
vt 0.000000 3.500000 0.000000
vt -3.000000 -0.150000 0.000000
vt 3.000000 -0.150000 0.000000
vt 3.000000 2.150000 0.000000
vt -3.000000 2.150000 0.000000
vt -3.000000 -3.200000 0.000000
vt 3.000000 -3.200000 0.000000
vt 3.000000 3.200000 0.000000
vt -3.000000 3.200000 0.000000
vt 0.000000 0.000000 0.000000
vt 6.000000 0.000000 0.000000
vt 6.000000 5.500000 0.000000
vt 0.000000 5.500000 0.000000
vt 3.000000 2.150000 0.000000
vt -3.000000 2.150000 0.000000
vt -3.000000 -2.150000 0.000000
vt 3.000000 -2.150000 0.000000
vt 15.000000 3.500000 0.000000
vt 13.000000 5.500000 0.000000
vt 10.700000 5.500000 0.000000
vt 10.700000 2.000000 0.000000
vt 4.300000 2.000000 0.000000
vt 4.300000 5.500000 0.000000
vt 0.000000 5.500000 0.000000
vt 0.000000 0.000000 0.000000
vt 15.000000 0.000000 0.000000
vt -50.450001 -32.000000 0.000000
vt 50.450001 -32.000000 0.000000
vt 50.450001 32.000000 0.000000
vt 9.950000 32.000000 0.000000
vt 9.950000 62.000000 0.000000
vt -50.450001 62.000000 0.000000
vt 0.000000 0.000000 0.000000
vt 94.000000 0.000000 0.000000
vt 94.000000 113.300003 0.000000
vt 64.000000 113.300003 0.000000
vt 64.000000 114.699997 0.000000
vt 0.000000 114.699997 0.000000
vt 0.000000 32.000000 0.000000
vt 0.000000 -32.000000 0.000000
vt 50.450001 -32.000000 0.000000
vt 50.450001 32.000000 0.000000
vt 48.000000 5.300000 0.000000
vt 48.000000 0.000000 0.000000
vt 64.000000 0.000000 0.000000
vt 64.000000 63.299999 0.000000
vt 0.000000 63.299999 0.000000
vt 0.000000 0.000000 0.000000
vt 16.000000 0.000000 0.000000
vt 16.000000 5.300000 0.000000
vt 0.000000 0.000000 0.000000
vt 100.900002 0.000000 0.000000
vt 100.900002 114.699997 0.000000
vt 50.450001 114.699997 0.000000
vt 50.450001 178.000000 0.000000
vt 43.450001 178.000000 0.000000
vt 43.450001 114.699997 0.000000
vt 0.000000 114.699997 0.000000
vt 0.000000 0.000000 0.000000
vt 64.000000 0.000000 0.000000
vt 64.000000 114.699997 0.000000
vt 0.000000 114.699997 0.000000
vt 5.500000 -7.500000 0.000000
vt -0.500000 -7.500000 0.000000
vt -0.500000 7.500000 0.000000
vt 5.500000 7.500000 0.000000
vt 15.000000 -16.000000 0.000000
vt 15.000000 16.000000 0.000000
vt -15.000000 16.000000 0.000000
vt -15.000000 -16.000000 0.000000
vt 0.000000 0.000000 0.000000
vt 32.000000 0.000000 0.000000
vt 32.000000 5.300000 0.000000
vt 0.000000 5.300000 0.000000
vt 3.500000 32.000000 0.000000
vt -3.500000 32.000000 0.000000
vt -3.500000 -32.000000 0.000000
vt 3.500000 -32.000000 0.000000
vt 60.400002 113.300003 0.000000
vt 60.400002 0.000000 0.000000
vt 100.900002 0.000000 0.000000
vt 100.900002 114.699997 0.000000
vt 57.450001 114.699997 0.000000
vt 57.450001 178.000000 0.000000
vt 50.450001 178.000000 0.000000
vt 50.450001 114.699997 0.000000
vt 0.000000 114.699997 0.000000
vt 0.000000 113.300003 0.000000
vt -7.000000 -16.000000 0.000000
vt -37.000000 -16.000000 0.000000
vt -37.000000 16.000000 0.000000
vt -7.000000 16.000000 0.000000
vt -7.000000 32.000000 0.000000
vt -50.450001 32.000000 0.000000
vt -50.450001 -32.000000 0.000000
vt -7.000000 -32.000000 0.000000
vt 0.000000 0.000000 0.000000
vt 30.000000 0.000000 0.000000
vt 30.000000 5.300000 0.000000
vt 0.000000 5.300000 0.000000
vt 0.000000 0.000000 0.000000
vt 30.000000 0.000000 0.000000
vt 30.000000 113.300003 0.000000
vt 0.000000 113.300003 0.000000
vt 30.200001 15.000000 0.000000
vt -30.200001 15.000000 0.000000
vt -30.200001 -15.000000 0.000000
vt 30.200001 -15.000000 0.000000
vt 0.000000 0.000000 0.000000
vt 60.400002 0.000000 0.000000
vt 60.400002 113.300003 0.000000
vt 0.000000 113.300003 0.000000
vn 0.000000 0.000000 0.100000
vn 0.000000 0.000000 0.100000
vn 0.000000 0.000000 0.100000
vn 0.000000 0.000000 0.100000
vn -0.100000 0.000000 0.000000
vn -0.100000 0.000000 0.000000
vn -0.100000 0.000000 0.000000
vn -0.100000 0.000000 0.000000
vn -0.100000 0.000000 0.000000
vn -0.100000 0.000000 0.000000
vn -0.100000 0.000000 0.000000
vn -0.100000 0.000000 0.000000
vn 0.000000 0.000000 0.100000
vn 0.000000 0.000000 0.100000
vn 0.000000 0.000000 0.100000
vn 0.000000 0.000000 0.100000
vn 0.000000 0.000000 0.100000
vn 0.000000 0.000000 0.100000
vn 0.000000 0.000000 0.100000
vn 0.000000 0.000000 0.100000
vn 0.000000 0.000000 0.100000
vn -0.100000 0.000000 0.000000
vn -0.100000 0.000000 0.000000
vn -0.100000 0.000000 0.000000
vn -0.100000 0.000000 0.000000
vn -0.070711 0.070711 0.000000
vn -0.070711 0.070711 0.000000
vn -0.070711 0.070711 0.000000
vn -0.070711 0.070711 0.000000
vn 0.100000 0.000000 0.000000
vn 0.100000 0.000000 0.000000
vn 0.100000 0.000000 0.000000
vn 0.100000 0.000000 0.000000
vn 0.000000 0.100000 0.000000
vn 0.000000 0.100000 0.000000
vn 0.000000 0.100000 0.000000
vn 0.000000 0.100000 0.000000
vn 0.000000 0.100000 0.000000
vn 0.000000 0.100000 0.000000
vn 0.000000 0.100000 0.000000
vn 0.000000 0.100000 0.000000
vn 0.100000 0.000000 0.000000
vn 0.100000 0.000000 0.000000
vn 0.100000 0.000000 0.000000
vn 0.100000 0.000000 0.000000
vn 0.000000 0.100000 0.000000
vn 0.000000 0.100000 0.000000
vn 0.000000 0.100000 0.000000
vn 0.000000 0.100000 0.000000
vn 0.000000 0.000000 -0.100000
vn 0.000000 0.000000 -0.100000
vn 0.000000 0.000000 -0.100000
vn 0.000000 0.000000 -0.100000
vn 0.000000 0.000000 -0.100000
vn 0.000000 0.000000 -0.100000
vn 0.000000 0.000000 -0.100000
vn 0.000000 0.000000 -0.100000
vn 0.000000 0.000000 -0.100000
vn 0.000000 -0.100000 0.000000
vn 0.000000 -0.100000 0.000000
vn 0.000000 -0.100000 0.000000
vn 0.000000 -0.100000 0.000000
vn 0.000000 -0.100000 0.000000
vn 0.000000 -0.100000 0.000000
vn 0.000000 0.000000 0.100000
vn 0.000000 0.000000 0.100000
vn 0.000000 0.000000 0.100000
vn 0.000000 0.000000 0.100000
vn 0.000000 0.000000 0.100000
vn 0.000000 0.000000 0.100000
vn 0.000000 0.100000 0.000000
vn 0.000000 0.100000 0.000000
vn 0.000000 0.100000 0.000000
vn 0.000000 0.100000 0.000000
vn 0.000000 0.000000 -0.100000
vn 0.000000 0.000000 -0.100000
vn 0.000000 0.000000 -0.100000
vn 0.000000 0.000000 -0.100000
vn 0.000000 0.000000 -0.100000
vn 0.000000 0.000000 -0.100000
vn 0.000000 0.000000 -0.100000
vn 0.000000 0.000000 -0.100000
vn -0.100000 0.000000 0.000000
vn -0.100000 0.000000 0.000000
vn -0.100000 0.000000 0.000000
vn -0.100000 0.000000 0.000000
vn -0.100000 0.000000 0.000000
vn -0.100000 0.000000 0.000000
vn -0.100000 0.000000 0.000000
vn -0.100000 0.000000 0.000000
vn 0.000000 0.000000 -0.100000
vn 0.000000 0.000000 -0.100000
vn 0.000000 0.000000 -0.100000
vn 0.000000 0.000000 -0.100000
vn 0.000000 0.100000 0.000000
vn 0.000000 0.100000 0.000000
vn 0.000000 0.100000 0.000000
vn 0.000000 0.100000 0.000000
vn 0.000000 0.100000 0.000000
vn 0.000000 0.100000 0.000000
vn 0.000000 0.100000 0.000000
vn 0.000000 0.100000 0.000000
vn 0.000000 0.000000 -0.100000
vn 0.000000 0.000000 -0.100000
vn 0.000000 0.000000 -0.100000
vn 0.000000 0.000000 -0.100000
vn 0.000000 0.100000 0.000000
vn 0.000000 0.100000 0.000000
vn 0.000000 0.100000 0.000000
vn 0.000000 0.100000 0.000000
vn 0.100000 0.000000 0.000000
vn 0.100000 0.000000 0.000000
vn 0.100000 0.000000 0.000000
vn 0.100000 0.000000 0.000000
vn 0.100000 0.000000 0.000000
vn 0.100000 0.000000 0.000000
vn 0.100000 0.000000 0.000000
vn 0.100000 0.000000 0.000000
vn 0.100000 0.000000 0.000000
vn 0.100000 0.000000 0.000000
vn 0.000000 0.100000 0.000000
vn 0.000000 0.100000 0.000000
vn 0.000000 0.100000 0.000000
vn 0.000000 0.100000 0.000000
vn 0.000000 0.100000 0.000000
vn 0.000000 0.100000 0.000000
vn 0.000000 0.100000 0.000000
vn 0.000000 0.100000 0.000000
vn 0.100000 0.000000 0.000000
vn 0.100000 0.000000 0.000000
vn 0.100000 0.000000 0.000000
vn 0.100000 0.000000 0.000000
vn 0.000000 0.000000 -0.100000
vn 0.000000 0.000000 -0.100000
vn 0.000000 0.000000 -0.100000
vn 0.000000 0.000000 -0.100000
vn 0.000000 0.100000 0.000000
vn 0.000000 0.100000 0.000000
vn 0.000000 0.100000 0.000000
vn 0.000000 0.100000 0.000000
vn 0.100000 0.000000 0.000000
vn 0.100000 0.000000 0.000000
vn 0.100000 0.000000 0.000000
vn 0.100000 0.000000 0.000000
usemtl CF0CD45A251DA18B3ED1E4D8F1F95C65E6E4FB36
f 5/1/1 41/2/2 8/4/4
f 8/4/4 41/2/2 44/3/3
usemtl 24,37,248
f 9/5/5 10/6/6 11/8/8
f 11/8/8 10/6/6 12/7/7
usemtl 190,188,186
f 23/9/9 24/10/10 25/12/12
f 25/12/12 24/10/10 26/11/11
f 18/13/13 16/14/14 22/21/21
f 22/21/21 16/14/14 20/20/20
f 20/20/20 16/14/14 14/15/15
f 20/20/20 14/15/15 28/16/16
f 20/20/20 28/16/16 24/19/19
f 24/19/19 28/16/16 30/17/17
f 24/19/19 30/17/17 26/18/18
f 16/22/22 15/23/23 14/25/25
f 14/25/25 15/23/23 13/24/24
f 18/27/27 17/28/28 16/26/26
f 16/26/26 17/28/28 15/29/29
f 20/30/30 19/31/31 22/33/33
f 22/33/33 19/31/31 21/32/32
f 17/34/34 18/35/35 21/37/37
f 21/37/37 18/35/35 22/36/36
f 19/38/38 20/39/39 23/41/41
f 23/41/41 20/39/39 24/40/40
f 28/42/42 27/43/43 30/45/45
f 30/45/45 27/43/43 29/44/44
f 30/46/46 29/47/47 26/49/49
f 26/49/49 29/47/47 25/48/48
f 17/51/51 21/52/52 15/50/50
f 15/50/50 21/52/52 19/53/53
f 15/50/50 19/53/53 13/58/58
f 13/58/58 19/53/53 23/54/54
f 13/58/58 23/54/54 27/57/57
f 27/57/57 23/54/54 29/56/56
f 29/56/56 23/54/54 25/55/55
usemtl CF0CD45A251DA18B3ED1E4D8F1F95C65E6E4FB36
f 46/64/64 2/59/59 36/62/62
f 36/62/62 2/59/59 1/60/60
f 36/62/62 1/60/60 35/61/61
f 36/62/62 45/63/63 46/64/64
f 6/70/70 2/65/65 38/68/68
f 38/68/68 2/65/65 46/66/66
f 38/68/68 46/66/66 48/67/67
f 38/68/68 42/69/69 6/70/70
f 5/72/72 6/73/73 41/71/71
f 41/71/71 6/73/73 42/74/74
f 10/76/76 4/77/77 12/75/75
f 12/75/75 4/77/77 7/78/78
f 12/75/75 7/78/78 43/79/79
f 12/75/75 43/79/79 34/82/82
f 34/82/82 43/79/79 40/80/80
f 34/82/82 40/80/80 32/81/81
f 2/84/84 5/86/86 1/83/83
f 1/83/83 5/86/86 4/89/89
f 1/83/83 4/89/89 3/90/90
f 2/84/84 6/85/85 5/86/86
f 8/87/87 7/88/88 5/86/86
f 5/86/86 7/88/88 4/89/89
f 35/91/91 1/92/92 39/94/94
f 39/94/94 1/92/92 3/93/93
f 28/98/98 14/95/95 12/99/99
f 12/99/99 14/95/95 13/96/96
f 12/99/99 13/96/96 11/102/102
f 11/102/102 13/96/96 27/97/97
f 11/102/102 27/97/97 33/101/101
f 33/101/101 27/97/97 34/100/100
f 34/100/100 27/97/97 28/98/98
f 34/100/100 28/98/98 12/99/99
f 31/103/103 9/104/104 33/106/106
f 33/106/106 9/104/104 11/105/105
f 44/107/107 43/108/108 8/110/110
f 8/110/110 43/108/108 7/109/109
f 36/112/112 35/113/113 37/111/111
f 37/111/111 35/113/113 39/114/114
f 37/111/111 39/114/114 40/115/115
f 43/116/116 44/117/117 40/115/115
f 40/115/115 44/117/117 41/118/118
f 40/115/115 41/118/118 37/111/111
f 37/111/111 41/118/118 38/120/120
f 38/120/120 41/118/118 42/119/119
f 10/121/121 9/122/122 4/128/128
f 4/128/128 9/122/122 3/127/127
f 3/127/127 9/122/122 31/123/123
f 3/127/127 31/123/123 39/126/126
f 39/126/126 31/123/123 40/125/125
f 40/125/125 31/123/123 32/124/124
f 32/129/129 31/130/130 34/132/132
f 34/132/132 31/130/130 33/131/131
f 45/133/133 36/134/134 47/136/136
f 47/136/136 36/134/134 37/135/135
f 48/137/137 47/138/138 38/140/140
f 38/140/140 47/138/138 37/139/139
f 46/141/141 45/142/142 48/144/144
f 48/144/144 45/142/142 47/143/143

# 48 vertices
# 144 texture params
# 144 normals
# 92 facets

# 1 groups
